<?xml version="1.0" encoding="UTF-8" standalone="no"?>
<!DOCTYPE svg PUBLIC "-//W3C//DTD SVG 1.1//EN" "http://www.w3.org/Graphics/SVG/1.1/DTD/svg11.dtd">
<svg width="100%" height="100%" viewBox="0 0 500 300" version="1.1" xmlns="http://www.w3.org/2000/svg" xmlns:xlink="http://www.w3.org/1999/xlink" xml:space="preserve" xmlns:serif="http://www.serif.com/" style="fill-rule:evenodd;clip-rule:evenodd;stroke-linejoin:round;stroke-miterlimit:2;">
    <path d="M469.9,212.1L455.2,212.1L454.8,214.3L461,214.3L458.8,231.6L461.4,231.6L463.7,214.3L469.4,214.3L469.9,212.1ZM480.1,224.9L477,212.1L475.2,212.1L468.5,231.6L470.7,231.6L476.1,216.5L479.2,231.6L487.2,216.5L487.2,231.6L489.8,231.6L489.8,212.1L487.2,212.1L480.1,224.9ZM76.2,282.1L59,249.7L44.3,249.7L71.4,299.4L79.8,299.4L107.3,249.7L92.2,249.7L76.2,282.1ZM141,249.7L141,299.4L154.3,299.4L154.3,249.7L141,249.7ZM285,299.4L321.8,299.4L321.8,291L298.8,291L298.8,277.7L320.5,277.7L320.5,269.2L298.8,269.2L298.8,258.2L321.8,258.2L321.8,249.7L285,249.7L285,299.4ZM472,188.1C472,169.5 366.4,154.4 236,154.4C105.6,154.4 0,169.5 0,188.1C0,206.7 105.7,221.8 236,221.8C366.3,221.8 472,206.8 472,188.1ZM173.3,188.6C173.3,182.4 197.5,177.5 227.4,177.5C257.3,177.5 281.4,182.5 281.4,188.5C281.4,194.5 257.3,199.6 227.4,199.6C197.5,199.6 173.4,194.6 173.4,188.6L173.3,188.6ZM392.3,249.5C373,249.5 357.3,260.6 357.3,274.3C357.3,288 373,299.1 392.3,299.1C411.6,299.1 427.3,288.1 427.3,274.3C427.3,260.6 411.6,249.5 392.3,249.5ZM392.3,290.1C380.8,290.1 371.5,283.1 371.5,274.3C371.5,265.6 380.8,258.6 392.3,258.6C403.8,258.6 413.1,265.6 413.1,274.3C413.1,283 403.8,290.1 392.3,290.1ZM214.8,249.7L193.8,249.7L193.8,299.4L214.8,299.4C214.8,299.4 248.2,299.4 248.2,274.8C248.2,250.2 214.8,249.8 214.8,249.8L214.8,249.7ZM207.8,290.9L207.8,258.2C207.8,258.2 234,256.5 234,274.7C234,292.8 207.9,290.9 207.9,290.9L207.8,290.9ZM192,54.3C192.171,45.403 190.818,36.541 188,28.1L189.7,28.1L234.5,154L344.5,28L403.8,28C403.8,28 450,26.8 450,56.5C450,86.2 411.6,97.7 387,97.7L376.4,97.7L390.2,38.3L341.9,38.3L321.5,124.7L387.3,124.7C450.3,124.7 500.1,90.1 500.1,54.3C500,1.3 418.9,0.6 418.9,0.6L316.9,0.6L252.2,82.2L227,0.6L43,0.6L36.3,28.1L97.8,28.1C106.5,28.3 141.8,30.5 141.8,56.5C141.8,86.2 103.4,97.7 78.9,97.7L68.3,97.7L82,38.3L33.7,38.3L13.3,124.7L79.1,124.7C142.1,124.7 191.9,90.1 191.9,54.3L192,54.3Z" style="fill:white;"/>
</svg>
