<?xml version="1.0" encoding="UTF-8" standalone="no"?>
<!DOCTYPE svg PUBLIC "-//W3C//DTD SVG 1.1//EN" "http://www.w3.org/Graphics/SVG/1.1/DTD/svg11.dtd">
<svg width="100%" height="100%" viewBox="0 0 836 444" version="1.1" xmlns="http://www.w3.org/2000/svg" xmlns:xlink="http://www.w3.org/1999/xlink" xml:space="preserve" xmlns:serif="http://www.serif.com/" style="fill-rule:evenodd;clip-rule:evenodd;stroke-linejoin:round;stroke-miterlimit:2;">
    <g transform="matrix(0.551181,0,0,0.551181,23.1468,13.3953)">
        <g id="Ebene-1" serif:id="Ebene 1">
            <g id="g2714">
                <path id="path106" d="M244.572,587.533C241.191,587.533 230.899,590.824 220.962,605.198C210.968,619.717 167.446,691.662 159.096,705.033C150.703,718.331 153.586,724.788 162.421,724.788L181.941,724.788C191.448,724.788 199.126,713.844 203.16,707.222C207.326,700.546 259.329,616.981 266.763,604.669C274.235,592.356 269.434,587.533 264.354,587.533L244.572,587.533" style="fill:white;fill-rule:nonzero;"/>
                <path id="path108" d="M121.188,623.823C112.213,642.428 94.154,642.885 85.033,642.885L70.403,642.885C67.046,642.885 63.398,642.885 67.594,636.501C71.681,630.006 77.518,619.973 80.327,615.522C83.135,611.181 85.69,610.086 90.762,610.086L109.368,610.086C114.839,610.086 127.937,609.795 121.188,623.823ZM96.416,679.513C87.513,698.139 70.586,698.576 61.465,698.576L35.818,698.576C32.46,698.576 28.849,698.576 32.972,692.099C37.094,685.661 43.333,675.591 46.142,671.304C49.025,666.836 51.505,665.851 56.539,665.851L84.558,665.851C90.031,665.851 103.202,665.358 96.416,679.513M68.434,724.461C101.05,723.038 123.521,722.564 149.207,674.717C160.553,653.374 128.886,652.225 128.886,652.225C124.726,652.225 157.639,653.829 175.515,616.617C191.598,582.994 162.57,585.628 157.191,585.067C132.936,582.583 87.332,582.658 52.564,585.273C44.975,585.273 37.021,594.928 32.899,600.93C28.849,606.913 -24.161,693.231 -32.15,706.182C-40.139,718.932 -32.807,723.914 -23.722,724.461C0.466,725.883 31.804,725.993 68.434,724.461" style="fill:white;fill-rule:nonzero;"/>
                <path id="path111" d="M1143.16,638.798L1100.74,707.276C1092.16,720.884 1099.9,724.844 1104.08,724.844L1122.68,724.844C1130.03,724.844 1135.68,724.278 1146.22,707.276L1188.79,638.542C1200.91,619.553 1185.88,620.849 1177.3,620.885C1161.3,621.031 1156.62,620.849 1143.16,638.798" style="fill:white;fill-rule:nonzero;"/>
                <path id="path119" d="M1319.04,643.578L1267.93,643.578C1262.67,643.578 1255.57,648.03 1252.13,653.646C1248.64,659.23 1250.21,663.716 1255.46,663.716L1292.44,663.716C1308.51,663.716 1313.53,673.859 1296.94,698.193C1292.98,703.83 1286,711.709 1280.88,714.939C1280.88,714.939 1266.4,726.869 1219.89,726.869C1178.07,726.869 1176.84,722.108 1176.84,722.108C1172.78,718.605 1171.03,713.224 1173.01,710.05C1174.97,706.875 1180.89,704.267 1186.14,704.267L1238.89,704.267C1244.17,704.267 1251.25,699.724 1254.77,694.197C1258.15,688.726 1256.76,683.143 1251.55,683.143L1212.18,683.143C1193.54,683.143 1195.66,670.028 1209.92,649.653C1213.86,644.053 1220.9,636.355 1226.06,633.18C1226.06,633.18 1241.88,620.995 1286.84,620.995C1304.45,620.995 1335.31,619.973 1333.28,634.33C1332.21,641.753 1322.52,643.578 1319.04,643.578" style="fill:white;fill-rule:nonzero;"/>
                <path id="path121" d="M1452.56,644.563L1411.71,644.563C1406.5,644.563 1399.16,649.432 1395.4,655.434L1371.9,693.377C1368.19,699.341 1369.46,704.267 1374.72,704.267L1423.2,704.267C1430.46,704.267 1434.59,704.833 1434.26,707.004C1433.19,714.391 1423.42,726.869 1365.24,726.869C1313.31,726.869 1316.97,719.48 1318.05,711.582C1319.23,703.593 1344.3,663.005 1351.99,650.691C1359.65,638.288 1371.1,621.031 1422,621.031C1469.43,621.031 1466.87,631.648 1466.44,634.493C1466.03,637.285 1463.04,644.563 1452.56,644.563" style="fill:white;fill-rule:nonzero;"/>
                <path id="path123" d="M1213.17,581.985C1217.15,581.985 1221.93,585.572 1218.21,591.553C1214.46,597.554 1213.28,599.633 1210.76,603.739C1208.22,607.824 1203.21,610.251 1195.87,610.251L1169.03,610.251C1164.36,610.251 1164.36,605.198 1166.54,600.93C1168.73,596.662 1170.37,595.093 1172.13,592.137C1173.81,589.291 1177.19,582.284 1187.13,582.284L1213.17,581.985" style="fill:white;fill-rule:nonzero;"/>
                <path id="path125" d="M440.723,656.164C430.861,656.164 427.218,663.059 425.462,665.941C423.706,668.861 422.1,670.392 419.914,674.661C417.692,678.966 418.271,684.019 421.371,684.019L449.222,684.019C456.657,684.019 461.588,681.592 464.128,677.434C466.65,673.385 467.827,671.323 471.581,665.304C475.261,659.284 470.554,655.836 466.575,655.836C462.559,655.836 440.163,655.89 440.163,655.89" style="fill:white;fill-rule:nonzero;"/>
                <path id="path127" d="M1060.16,633.673C1060.16,633.673 1031.01,680.517 1028.97,683.363C1026.99,686.262 1017.8,699.341 1004.01,699.341L975.492,699.341C970.673,699.341 967.684,698.193 971.513,692.501L1017.69,618.569C1019.56,616.379 1022.88,613.917 1026.64,613.917L1054.62,613.917C1063.38,613.917 1065.99,624.37 1060.16,633.673ZM1082.6,682.924C1100.01,655.434 1089.38,672.471 1112.95,634.056C1136.6,595.602 1099.67,587.757 1063.34,587.757C1008.2,587.757 990.697,590.021 990.697,590.021C985.411,590.568 977.995,595.967 974.352,601.987L906.958,710.56C903.315,716.524 904.455,721.943 909.629,722.636C909.629,722.636 925.786,724.788 980.89,724.788C1057.98,724.788 1065.23,710.452 1082.6,682.924" style="fill:white;fill-rule:nonzero;"/>
                <path id="path129" d="M664.071,692.555L663.511,693.377C659.289,700.217 650.865,705.818 644.794,705.818L631.457,706.565L619.633,705.818C613.6,705.818 612.068,700.217 616.346,693.377L616.813,692.555C621.165,685.607 629.589,680.023 635.604,680.023L660.784,680.023C666.873,680.023 668.293,685.607 664.071,692.555ZM638.126,661.581C621.856,661.581 616.719,662.457 601.925,662.878C596.639,662.878 589.354,667.766 585.618,673.73L571.796,696.988C554.984,723.731 591.726,725.718 619.988,725.718C665.715,725.718 687.626,713.224 687.626,713.224C692.856,710.232 700.066,703.008 703.802,696.988L733.24,649.488C736.92,643.578 737.649,634.42 734.922,629.167C734.922,629.167 730.569,620.849 684.824,620.849C639.583,620.849 621.819,628.035 621.819,628.035C616.458,630.116 610.536,634.493 608.575,637.631C606.539,640.877 609.266,643.36 614.59,643.36L681.835,643.36C687.121,643.36 689.064,647.736 685.776,652.498C680.303,660.616 670.59,661.581 670.59,661.581L638.126,661.581" style="fill:white;fill-rule:nonzero;"/>
                <path id="path131" d="M549.25,653.374C552.967,647.409 560.532,642.484 565.856,642.484L586.608,642.484C589.41,642.484 599.198,642.155 600.113,635.26C601.608,624.697 578.726,621.907 571.403,621.907C540.601,621.907 523.416,623.913 505.69,649.653C492.558,670.611 479.576,692.027 470.554,707.276C462.391,721.232 469.713,724.844 473.991,724.844L492.558,724.844C499.899,724.844 505.503,724.278 516.057,707.276L549.25,653.374" style="fill:white;fill-rule:nonzero;"/>
                <path id="path133" d="M414.292,639.674L384.779,687.958C381.248,693.925 384.685,696.605 388.178,696.605C391.653,696.551 395.762,696.551 397.817,696.551C401.833,696.551 406.577,700.107 402.804,706.182C399.124,712.129 398.097,714.556 395.557,718.66C392.96,722.763 388.029,725.171 380.595,725.171L367.781,725.171C359.693,725.171 364.063,712.129 364.063,712.129C352.165,725.829 322.876,725.883 293.699,725.883C265.698,725.883 228.452,726.047 245.637,697.262L281.184,639.364C287.889,629.022 292.111,626.01 297.304,622.855C297.304,622.855 299.302,621.742 314.694,621.742C324.557,621.742 338.492,621.031 326.742,639.364L294.203,692.447C290.486,698.449 291.756,703.283 297.005,703.283L320.84,703.283C326.089,703.283 333.411,698.449 337.147,692.447C337.147,692.447 354.332,664.428 369.275,639.674C372.973,633.546 382.78,621.031 392.736,621.031L408.968,621.031C415.936,621.031 424.192,623.22 414.292,639.674" style="fill:white;fill-rule:nonzero;"/>
                <path id="path135" d="M707.799,751.785L760.699,751.858L772.523,752.006C777.791,752.006 785.113,747.116 788.83,741.097L798.935,724.788C792.379,725.446 785.225,725.829 777.23,725.829C749.323,725.829 712.002,725.993 729.224,697.098L763.987,640.95C767.704,634.986 774.97,627.598 780.181,624.533C780.181,624.533 782.161,623.33 797.516,623.33C807.341,623.33 822.583,620.429 809.564,640.95L777.716,692.337C774.092,698.338 775.306,703.173 780.63,703.173L802.485,703.173C807.771,703.173 815.112,698.338 818.792,692.337L850.64,640.95C854.357,634.986 861.623,627.763 866.835,624.862C866.835,624.862 869.394,623.33 884.599,623.33C892.967,623.33 909.517,620.156 896.086,640.95L868.889,684.768C868.179,686.262 867.32,687.85 866.106,689.765L831.307,745.967C827.645,751.858 820.361,759.119 815.112,762.111C815.112,762.111 792.921,774.587 747.325,774.587C745.419,774.587 743.458,774.479 741.553,774.479C699.749,774.26 700.944,771.031 698.534,769.626C696.162,768.186 693.211,764.627 693.902,759.703C694.63,754.778 700.514,751.785 707.799,751.785" style="fill:white;fill-rule:nonzero;"/>
                <path id="path137" d="M356.723,235.56C356.723,223.549 429.067,206.737 546.915,206.737C664.8,206.737 737.07,223.549 737.07,235.56C737.07,247.589 664.8,264.288 546.915,264.288C429.067,264.288 356.723,247.589 356.723,235.56ZM281.538,28.033C280.735,28.033 280.007,28.481 279.54,29.098C223.857,107.495 190.178,160.656 155.341,225.099L151.867,232.216L150.849,234.514C147.894,240.752 148.585,247.701 152.82,254.276C173.442,286.517 289.029,324.174 546.952,324.174C739.293,324.174 943.7,293.129 943.7,235.56C943.7,179.951 741.964,146.796 546.952,146.796C482.229,146.796 418.14,155.93 399.629,158.825C417.299,131.628 490.485,33.076 491.251,32.03C491.568,31.601 491.792,31.096 491.792,30.555C491.792,30.162 491.606,29.789 491.456,29.396C491.026,28.575 490.149,28.033 489.271,28.033L281.538,28.033" style="fill:white;fill-rule:nonzero;"/>
                <path id="path145" d="M356.723,235.56C356.723,223.549 429.067,206.737 546.915,206.737C664.8,206.737 737.07,223.549 737.07,235.56C737.07,247.589 664.8,264.288 546.915,264.288C429.067,264.288 356.723,247.589 356.723,235.56ZM281.538,28.033C280.735,28.033 280.007,28.481 279.54,29.098C223.857,107.495 190.178,160.656 155.341,225.099L151.867,232.216L150.849,234.514C147.894,240.752 148.585,247.701 152.82,254.276C173.442,286.517 289.029,324.174 546.952,324.174C739.293,324.174 943.7,293.129 943.7,235.56C943.7,179.951 741.964,146.796 546.952,146.796C482.229,146.796 418.14,155.93 399.629,158.825C417.299,131.628 490.485,33.076 491.251,32.03C491.568,31.601 491.792,31.096 491.792,30.555C491.792,30.162 491.606,29.789 491.456,29.396C491.026,28.575 490.149,28.033 489.271,28.033L281.538,28.033" style="fill:white;fill-rule:nonzero;"/>
                <path id="path147" d="M427.48,525.107C427.48,525.107 1386.72,564.053 1407.23,228.816C1423.78,-43.06 742.543,-17.227 741.926,-17.227C741.254,-17.227 736.565,-16.723 736.565,-12.893C736.565,-9.568 739.031,-8.522 741.441,-8.522C930.419,-8.522 1237.75,66.494 1227.72,229.022C1219.63,361.476 979.863,516.458 427.76,516.458C424.51,516.458 422.287,518.7 422.287,520.717C422.287,522.791 423.613,524.659 427.48,525.107" style="fill:white;fill-rule:nonzero;"/>
                <path id="path149" d="M1279.93,494.734L1250.6,494.734L1250.6,488.047L1319,488.047L1319,494.734L1289.71,494.734L1289.71,547.858L1279.93,547.858L1279.93,494.734" style="fill:white;fill-rule:nonzero;"/>
                <path id="path151" d="M1332.79,488.047L1346.26,488.047L1369.46,538.406L1392.81,488.047L1406.24,488.047L1406.24,547.858L1396.97,547.858L1396.97,498.171L1396.75,498.171L1373.66,547.858L1365.31,547.858L1342.32,498.171L1342.13,498.171L1342.13,547.858L1332.79,547.858L1332.79,488.047" style="fill:white;fill-rule:nonzero;"/>
            </g>
        </g>
    </g>
</svg>
